#!OML:ASF C:\Vicon Data\Big\jianyuan-13\jianyuan\Session 1\Capture.male.ASF
:FULLY-SPECIFIED
:DEGREES
126
root -8.019607 17.441629 -17.562173 10.131404 6.347187 -0.338375
lowerback -9.339661 1.010261 -0.339104 
upperback -0.679494 1.302369 0.232115 
thorax 4.517775 0.606880 0.599796 
lowerneck -9.267235 -2.581835 4.716113 
upperneck 8.975778 -3.617762 -5.180863 
head 4.008834 -1.936300 -2.572853 
rclavicle 0.000000 0.000000 
rhumerus -33.103494 -10.152397 -85.199735 
rradius 38.528708 
rwrist 19.001862 
rhand -20.596313 -15.681544 
rfingers 0.000000 
rthumb 5.764124 -45.583084 
lclavicle 0.000000 0.000000 
lhumerus -67.570691 46.837544 37.545933 
lradius 19.833861 
lwrist -84.400478 
lhand -21.751776 -1.027462 
lfingers 0.000000 
lthumb 4.648444 28.901566 
rfemur -7.043563 2.845703 25.739299 
rtibia 22.038177 
rfoot -13.953643 -1.473278 
rtoes -25.581914 
lfemur -24.809738 -7.348475 -19.154516 
ltibia 9.161222 
lfoot -5.232543 4.813173 
ltoes -29.028698 
127
root -8.012874 17.447626 -17.480073 10.117068 6.275057 -0.351414
lowerback -9.439433 0.987408 -0.447144 
upperback -0.724503 1.277389 0.287508 
thorax 4.523246 0.590453 0.716137 
lowerneck -9.232565 -2.557830 4.745622 
upperneck 9.122313 -3.583135 -5.238805 
head 4.047818 -1.922684 -2.595588 
rclavicle 0.000000 0.000000 
rhumerus -33.242199 -10.255348 -85.038778 
rradius 38.312358 
rwrist 19.319069 
rhand -20.506139 -15.563126 
rfingers 0.000000 
rthumb 5.851138 -45.462356 
lclavicle 0.000000 0.000000 
lhumerus -67.603165 46.728841 37.781890 
lradius 19.886770 
lwrist -84.087279 
lhand -21.857694 -0.963078 
lfingers 0.000000 
lthumb 4.546189 28.968153 
rfemur -7.003852 2.844997 25.733523 
rtibia 22.514078 
rfoot -13.769334 -1.387765 
rtoes -25.897979 
lfemur -24.654433 -7.345128 -19.143739 
ltibia 9.310254 
lfoot -5.227372 4.863823 
ltoes -28.092503 
128
root -8.007389 17.451764 -17.398590 10.111336 6.190747 -0.267146
lowerback -9.540848 0.961820 -0.668269 
upperback -0.763286 1.263146 0.309128 
thorax 4.534290 0.577609 0.862515 
lowerneck -9.113038 -2.569961 4.805986 
upperneck 9.187170 -3.601801 -5.265640 
head 4.045123 -1.931377 -2.613494 
rclavicle 0.000000 0.000000 
rhumerus -33.420827 -10.357040 -84.974369 
rradius 38.167892 
rwrist 19.362371 
rhand -20.619427 -15.713158 
rfingers 0.000000 
rthumb 5.741810 -45.615358 
lclavicle 0.000000 0.000000 
lhumerus -67.526367 46.626491 38.064920 
lradius 19.929494 
lwrist -83.786120 
lhand -21.769161 -1.073154 
lfingers 0.000000 
lthumb 4.631716 28.856197 
rfemur -7.049250 2.770410 25.622707 
rtibia 23.132296 
rfoot -13.527006 -1.259783 
rtoes -26.189785 
lfemur -24.483421 -7.335306 -19.207824 
ltibia 9.452922 
lfoot -5.313451 4.916118 
ltoes -26.714124 
129
root -8.002690 17.455468 -17.317840 10.191374 6.137973 -0.130793
lowerback -9.731046 0.910928 -0.944344 
upperback -0.804832 1.221870 0.316370 
thorax 4.591933 0.549674 1.022932 
lowerneck -9.063966 -2.560893 4.862613 
upperneck 9.280941 -3.594874 -5.274507 
head 4.064702 -1.926992 -2.625796 
rclavicle 0.000000 0.000000 
rhumerus -33.529318 -10.703338 -84.751747 
rradius 37.853308 
rwrist 20.027102 
rhand -20.445681 -15.454376 
rfingers 0.000000 
rthumb 5.909562 -45.351982 
lclavicle 0.000000 0.000000 
lhumerus -67.435673 46.590087 38.329041 
lradius 19.932756 
lwrist -83.471670 
lhand -21.964923 -1.057536 
lfingers 0.000000 
lthumb 4.442624 28.875877 
rfemur -7.271726 2.635191 25.462724 
rtibia 23.907674 
rfoot -13.309593 -1.119994 
rtoes -26.649082 
lfemur -24.390060 -7.358958 -19.295642 
ltibia 9.598931 
lfoot -5.345184 4.963688 
ltoes -25.397963 
130
root -7.995147 17.459273 -17.239742 10.227668 6.125144 0.018158
lowerback -9.854226 0.844779 -1.151521 
upperback -0.826209 1.156654 0.288376 
thorax 4.636363 0.512310 1.103585 
lowerneck -9.061725 -2.536739 4.752623 
upperneck 9.384843 -3.564011 -5.107843 
head 4.103052 -1.906453 -2.556878 
rclavicle 0.000000 0.000000 
rhumerus -33.662771 -10.794212 -84.660529 
rradius 37.663955 
rwrist 20.201773 
rhand -20.396189 -15.454933 
rfingers 0.000000 
rthumb 5.957302 -45.351202 
lclavicle 0.000000 0.000000 
lhumerus -67.265735 46.532334 38.660460 
lradius 20.012293 
lwrist -83.159054 
lhand -21.907697 -1.214696 
lfingers 0.000000 
lthumb 4.497897 28.717566 
rfemur -7.535154 2.390794 25.263767 
rtibia 24.823112 
rfoot -13.098131 -0.888245 
rtoes -26.717896 
lfemur -24.295233 -7.425352 -19.394536 
ltibia 9.859992 
lfoot -5.331434 5.148476 
ltoes -25.104757 
131
root -7.989801 17.461899 -17.161288 10.226955 6.089915 0.137633
lowerback -9.948933 0.795678 -1.354536 
upperback -0.831878 1.114855 0.262857 
thorax 4.681041 0.486893 1.187204 
lowerneck -9.048240 -2.522134 4.734660 
upperneck 9.473316 -3.557098 -4.947508 
head 4.131756 -1.894466 -2.505570 
rclavicle 0.000000 0.000000 
rhumerus -33.786508 -11.006086 -84.633611 
rradius 37.453058 
rwrist 20.174430 
rhand -20.590384 -15.560881 
rfingers 0.000000 
rthumb 5.769811 -45.462308 
lclavicle 0.000000 0.000000 
lhumerus -66.864235 46.424933 39.242435 
lradius 20.052581 
lwrist -82.786516 
lhand -21.777390 -1.116266 
lfingers 0.000000 
lthumb 4.623754 28.813305 
rfemur -7.839649 2.103479 25.099169 
rtibia 25.870100 
rfoot -12.910338 -0.645425 
rtoes -27.210379 
lfemur -24.141469 -7.400893 -19.498462 
ltibia 10.154349 
lfoot -5.461284 5.357340 
ltoes -25.143127 
132
root -7.985002 17.462313 -17.084724 10.214205 6.089633 0.254512
lowerback -10.020747 0.744941 -1.540727 
upperback -0.828117 1.070459 0.225109 
thorax 4.723630 0.460838 1.247894 
lowerneck -9.005318 -2.533811 4.793235 
upperneck 9.525477 -3.586775 -4.871972 
head 4.139523 -1.902522 -2.493542 
rclavicle 0.000000 0.000000 
rhumerus -33.937816 -11.298577 -84.521257 
rradius 37.181104 
rwrist 20.560995 
rhand -20.614111 -15.504548 
rfingers 0.000000 
rthumb 5.746940 -45.406611 
lclavicle 0.000000 0.000000 
lhumerus -66.555878 46.406087 39.630100 
lradius 20.096032 
lwrist -82.532647 
lhand -21.835072 -1.194514 
lfingers 0.000000 
lthumb 4.568059 28.736211 
rfemur -8.193297 1.828800 24.933935 
rtibia 27.022952 
rfoot -12.688794 -0.385717 
rtoes -27.362384 
lfemur -23.999394 -7.216799 -19.675952 
ltibia 10.525323 
lfoot -5.594434 5.386286 
ltoes -25.710456 
133
root -7.978022 17.462427 -17.010694 10.255389 6.136971 0.375789
lowerback -10.122006 0.693285 -1.637652 
upperback -0.834377 1.017203 0.135216 
thorax 4.775274 0.432184 1.202965 
lowerneck -8.970753 -2.551100 4.747000 
upperneck 9.554243 -3.624844 -4.650302 
head 4.146139 -1.909567 -2.419786 
rclavicle 0.000000 0.000000 
rhumerus -34.092464 -11.793577 -84.410017 
rradius 36.939760 
rwrist 21.130091 
rhand -20.484550 -15.467464 
rfingers 0.000000 
rthumb 5.871999 -45.366108 
lclavicle 0.000000 0.000000 
lhumerus -66.023724 46.292878 40.213904 
lradius 20.125382 
lwrist -82.251973 
lhand -21.850041 -1.157517 
lfingers 0.000000 
lthumb 4.553588 28.773520 
rfemur -8.665116 1.413150 24.756700 
rtibia 28.245715 
rfoot -12.311082 -0.069958 
rtoes -27.605860 
lfemur -23.965800 -6.876019 -19.923630 
ltibia 10.960008 
lfoot -5.579718 5.190737 
ltoes -26.701810 
134
root -7.971879 17.465015 -16.938414 10.316460 6.207902 0.486690
lowerback -10.228500 0.626037 -1.762170 
upperback -0.844689 0.944641 0.078135 
thorax 4.825222 0.392965 1.204909 
lowerneck -8.965166 -2.565538 4.849865 
upperneck 9.585144 -3.658464 -4.641225 
head 4.151262 -1.921898 -2.435895 
rclavicle 0.000000 0.000000 
rhumerus -34.253438 -12.113041 -84.352093 
rradius 36.725489 
rwrist 21.171752 
rhand -20.543881 -15.566504 
rfingers 0.000000 
rthumb 5.814766 -45.466719 
lclavicle 0.000000 0.000000 
lhumerus -65.356863 46.130664 41.013523 
lradius 20.177494 
lwrist -81.590615 
lhand -21.907228 -1.242348 
lfingers 0.000000 
lthumb 4.498367 28.689878 
rfemur -9.232110 1.021547 24.577831 
rtibia 29.554003 
rfoot -11.897333 0.236788 
rtoes -27.164809 
lfemur -23.991587 -6.556374 -20.136196 
ltibia 11.385477 
lfoot -5.405449 4.944367 
ltoes -26.884734 
135
root -7.966431 17.466510 -16.866772 10.310164 6.255686 0.562621
lowerback -10.263163 0.584129 -1.881163 
upperback -0.844300 0.903325 0.065513 
thorax 4.844712 0.369772 1.253431 
lowerneck -8.983377 -2.597010 4.878391 
upperneck 9.682723 -3.706495 -4.637273 
head 4.181253 -1.944982 -2.444068 
rclavicle 0.000000 0.000000 
rhumerus -34.440956 -12.371250 -84.250431 
rradius 36.502102 
rwrist 21.055965 
rhand -20.786059 -15.684255 
rfingers 0.000000 
rthumb 5.580901 -45.590773 
lclavicle 0.000000 0.000000 
lhumerus -64.739427 46.016628 41.819348 
lradius 20.222957 
lwrist -81.232377 
lhand -21.943703 -1.083842 
lfingers 0.000000 
lthumb 4.463135 28.849115 
rfemur -9.776733 0.544586 24.427359 
rtibia 30.929737 
rfoot -11.410868 0.656509 
rtoes -26.843143 
lfemur -23.969226 -6.373093 -20.235311 
ltibia 11.802619 
lfoot -5.399290 4.729936 
ltoes -26.041570 
136
root -7.959428 17.465715 -16.796407 10.308121 6.293058 0.639792
lowerback -10.302559 0.539862 -1.997041 
upperback -0.828773 0.859191 0.062289 
thorax 4.882861 0.345153 1.309774 
lowerneck -8.982173 -2.614884 4.805735 
upperneck 9.715614 -3.730905 -4.544094 
head 4.193275 -1.954326 -2.405586 
rclavicle 0.000000 0.000000 
rhumerus -34.617423 -12.688745 -84.072599 
rradius 36.241832 
rwrist 21.376706 
rhand -20.879181 -15.684234 
rfingers 0.000000 
rthumb 5.490984 -45.593079 
lclavicle 0.000000 0.000000 
lhumerus -63.989800 45.859323 42.800583 
lradius 20.307765 
lwrist -80.712140 
lhand -21.923570 -1.030901 
lfingers 0.000000 
lthumb 4.482567 28.901647 
rfemur -10.370126 0.082512 24.273140 
rtibia 32.364912 
rfoot -10.903363 0.999631 
rtoes -27.012219 
lfemur -23.934836 -6.171605 -20.367456 
ltibia 12.185313 
lfoot -5.350153 4.393971 
ltoes -25.222471 
137
root -7.951435 17.461452 -16.727667 10.259605 6.297635 0.692401
lowerback -10.271774 0.512082 -2.082673 
upperback -0.811533 0.832538 0.067648 
thorax 4.883343 0.330545 1.359577 
lowerneck -8.933266 -2.638596 4.714634 
upperneck 9.727086 -3.763281 -4.413206 
head 4.191662 -1.965835 -2.351655 
rclavicle 0.000000 0.000000 
rhumerus -34.821101 -12.942941 -83.882367 
rradius 36.012315 
rwrist 21.565876 
rhand -20.839955 -15.743817 
rfingers 0.000000 
rthumb 5.528857 -45.651646 
lclavicle 0.000000 0.000000 
lhumerus -63.578847 45.936177 43.303897 
lradius 20.350105 
lwrist -80.729930 
lhand -22.108806 -1.101908 
lfingers 0.000000 
lthumb 4.303737 28.834303 
rfemur -10.969320 -0.382352 24.124072 
rtibia 33.841197 
rfoot -10.334703 1.358424 
rtoes -27.143406 
lfemur -23.854834 -5.939430 -20.511258 
ltibia 12.561907 
lfoot -5.215121 4.013237 
ltoes -24.255710 
138
root -7.942557 17.458598 -16.658846 10.184019 6.305513 0.714232
lowerback -10.228009 0.494356 -2.118847 
upperback -0.780576 0.814049 0.079630 
thorax 4.891328 0.321159 1.389580 
lowerneck -8.985760 -2.650942 4.685414 
upperneck 9.826080 -3.781753 -4.383998 
head 4.230948 -1.975000 -2.341815 
rclavicle 0.000000 0.000000 
rhumerus -35.044991 -13.309899 -83.624628 
rradius 35.789747 
rwrist 21.882041 
rhand -20.749863 -15.737327 
rfingers 0.000000 
rthumb 5.615883 -45.642898 
lclavicle 0.000000 0.000000 
lhumerus -62.882290 45.861223 44.215205 
lradius 20.422427 
lwrist -80.214563 
lhand -22.346558 -1.160363 
lfingers 0.000000 
lthumb 4.074121 28.780469 
rfemur -11.579775 -0.770948 23.983014 
rtibia 35.364835 
rfoot -9.674137 1.731401 
rtoes -27.072759 
lfemur -23.743967 -5.701290 -20.626306 
ltibia 12.904855 
lfoot -4.928440 3.583271 
ltoes -22.719303 
